<svg width="280" height="59" viewBox="0 0 280 59" fill="none" xmlns="http://www.w3.org/2000/svg">
<g clip-path="url(#clip0_21_2024)">
<path d="M77.2911 22.3651H85.6432L81.3302 8.9872L77.2911 22.3651ZM96.5282 35.743H90.2984C90.093 35.743 89.8877 35.5372 89.7507 35.3314L87.3547 27.7849H75.648L73.3204 35.3314C73.252 35.5372 72.9781 35.743 72.7727 35.743H66.6798C66.4744 35.743 66.3375 35.5372 66.406 35.3314L77.0172 4.80232C77.0857 4.5965 77.3595 4.39069 77.5649 4.39069H85.917C86.1224 4.39069 86.3962 4.5965 86.4647 4.80232L96.8021 35.3314C96.8705 35.5372 96.8021 35.743 96.5282 35.743ZM118.778 27.3046C118.298 32.5186 114.054 36.3605 108.029 36.3605C102.005 36.3605 96.2544 31.6267 96.2544 24.286C96.2544 16.9453 100.636 12.0744 108.166 12.0744C115.697 12.0744 117.888 15.436 118.435 20.4442C118.435 20.65 118.298 20.8558 118.093 20.8558H112.685C112.479 20.8558 112.274 20.65 112.274 20.4442C111.726 17.8372 110.152 16.6023 108.235 16.6023C104.812 16.6023 103.237 19.1407 103.237 24.2174C103.237 29.2942 104.88 31.7639 108.235 31.8325C110.494 31.8325 112.206 30.2546 112.479 27.236C112.479 27.0302 112.685 26.8244 112.89 26.8244H118.435C118.641 26.8244 118.846 27.0302 118.778 27.236V27.3046ZM142.67 27.3046C142.191 32.5186 137.946 36.3605 131.922 36.3605C125.897 36.3605 120.147 31.6267 120.147 24.286C120.147 16.9453 124.528 12.0744 132.059 12.0744C139.589 12.0744 141.78 15.436 142.328 20.4442C142.328 20.65 142.191 20.8558 141.985 20.8558H136.577C136.372 20.8558 136.166 20.65 136.166 20.4442C135.619 17.8372 134.044 16.6023 132.127 16.6023C128.704 16.6023 127.13 19.1407 127.13 24.2174C127.13 29.2942 128.773 31.7639 132.127 31.8325C134.386 31.8325 136.098 30.2546 136.372 27.236C136.372 27.0302 136.577 26.8244 136.783 26.8244H142.328C142.533 26.8244 142.739 27.0302 142.67 27.236V27.3046ZM150.885 35.743H144.998C144.792 35.743 144.587 35.5372 144.587 35.3314L144.792 24.1488L144.587 13.0349C144.587 12.8291 144.792 12.6232 144.998 12.6232H150.885C151.091 12.6232 151.296 12.8291 151.296 13.0349L151.091 16.5337C152.871 13.7895 155.951 12.486 159.306 12.486C162.66 12.486 159.99 12.486 160.333 12.486C160.538 12.486 160.743 12.7605 160.743 12.9663V17.1512C160.743 17.357 160.538 17.4942 160.333 17.4942H159.511C154.787 17.4942 151.228 20.1698 151.296 25.4523V35.3314C151.296 35.5372 151.091 35.743 150.885 35.743ZM177.653 27.9907H183.267C183.472 27.9907 183.677 28.1965 183.609 28.4023C182.993 32.5872 179.022 36.3605 172.587 36.3605C166.152 36.3605 160.743 31.2837 160.743 24.286C160.743 17.2884 165.125 12.0744 172.45 12.0744C179.775 12.0744 184.225 17.0825 184.362 25.1779C184.362 25.3837 184.157 25.5895 183.951 25.5895H167.521C167.795 29.9116 169.506 31.8325 172.724 31.8325C175.941 31.8325 176.558 30.8035 177.174 28.3337C177.174 28.1279 177.448 27.9221 177.653 27.9221V27.9907ZM177.105 21.336C176.831 18.8663 175.462 16.5337 172.518 16.5337C169.575 16.5337 168.206 18.1802 167.658 21.336H177.105ZM192.646 24.0116C192.646 29.2256 194.426 31.8325 197.643 31.8325C200.861 31.8325 202.641 29.3628 202.709 24.4918C202.709 19.5523 200.998 16.8081 197.78 16.7395C194.357 16.7395 192.646 19.2779 192.646 24.0116ZM208.802 35.743H202.778C202.572 35.743 202.367 35.5372 202.367 35.3314L202.504 33.0674C200.861 35.057 198.602 36.2232 195.726 36.2232C189.223 36.2232 185.731 31.0093 185.731 24.286C185.731 17.5628 189.565 12.2116 195.863 12.2116C202.161 12.2116 200.929 13.1721 202.504 15.093V4.80232C202.504 4.5965 202.641 4.39069 202.846 4.39069H208.802C209.007 4.39069 209.213 4.5965 209.213 4.80232V20.1012C209.144 20.1012 209.213 35.4 209.213 35.4C209.213 35.6058 209.007 35.8116 208.802 35.8116V35.743ZM218.25 10.4279H212.225C212.02 10.4279 211.814 10.2221 211.814 10.0163V4.80232C211.814 4.5965 212.02 4.39069 212.225 4.39069H218.25C218.455 4.39069 218.66 4.5965 218.66 4.80232V10.0163C218.66 10.2221 218.455 10.4279 218.25 10.4279ZM218.318 35.743H212.294C212.088 35.743 211.883 35.5372 211.883 35.3314L212.02 24.2174L211.883 13.0349C211.883 12.8291 212.088 12.6232 212.294 12.6232H218.318C218.523 12.6232 218.729 12.8291 218.729 13.0349L218.592 24.2174L218.729 35.3314C218.729 35.5372 218.523 35.743 218.318 35.743ZM244.812 24.1488C244.812 30.8035 240.978 36.2232 234.68 36.2232C228.382 36.2232 229.614 35.1942 228.039 33.3418L228.176 35.4C228.176 35.6058 227.971 35.8116 227.765 35.8116H221.741C221.536 35.8116 221.33 35.6058 221.33 35.4L221.467 20.1012L221.33 4.80232C221.33 4.5965 221.536 4.39069 221.741 4.39069H227.697C227.902 4.39069 228.108 4.5965 228.108 4.80232V15.2988C229.682 13.3093 231.941 12.2116 234.817 12.2116C241.32 12.2116 244.812 17.4256 244.812 24.1488ZM227.902 24.0116C227.902 28.9512 229.614 31.6267 232.831 31.6953C236.254 31.6953 237.966 29.157 237.966 24.4918C237.966 19.8267 236.186 16.8081 232.968 16.8767C229.682 16.8767 227.971 19.2779 227.902 24.0116ZM253.232 35.743H247.413C247.208 35.743 247.003 35.5372 247.003 35.3314L247.208 20.0325L247.003 4.73371C247.003 4.5279 247.208 4.32208 247.413 4.32208H253.232C253.438 4.32208 253.643 4.5279 253.643 4.73371L253.438 20.0325L253.643 35.3314C253.643 35.5372 253.438 35.743 253.232 35.743ZM272.812 27.9907H278.426C278.631 27.9907 278.836 28.1965 278.768 28.4023C278.152 32.5872 274.181 36.3605 267.746 36.3605C261.311 36.3605 255.902 31.2837 255.902 24.286C255.902 17.2884 260.284 12.0744 267.609 12.0744C274.934 12.0744 279.384 17.0825 279.521 25.1779C279.521 25.3837 279.316 25.5895 279.11 25.5895H262.68C262.954 29.9116 264.665 31.8325 267.883 31.8325C271.1 31.8325 271.716 30.8035 272.333 28.3337C272.333 28.1279 272.606 27.9221 272.812 27.9221V27.9907ZM272.264 21.336C271.99 18.8663 270.621 16.5337 267.677 16.5337C264.734 16.5337 263.364 18.1802 262.885 21.336H272.333H272.264Z" fill="black"/>
<path fill-rule="evenodd" clip-rule="evenodd" d="M52.5086 26.8244V0.274414H14.3081C6.77758 0.274414 0.616211 6.38023 0.616211 13.9953V40.5453H38.8167C46.3473 40.5453 52.5086 34.4395 52.5086 26.8244ZM13.692 13.9267H41.2812V17.4942H13.692V13.9267ZM41.0074 29.0198C42.1712 26.55 39.5698 23.6 36.9683 24.2174C34.3668 24.5605 33.1345 28.0593 34.846 29.9802C36.4206 32.107 40.1174 31.4895 40.939 29.0198H41.0074Z" fill="#5B4DFC"/>
<path d="M169.506 58.4512C168.616 58.4512 167.863 58.3139 167.11 58.0395C166.357 57.7651 165.741 57.3535 165.193 56.8046C164.645 56.2558 164.235 55.6384 163.961 54.9523C163.687 54.2663 163.481 53.443 163.481 52.6198C163.481 51.7965 163.618 50.9732 163.961 50.2872C164.303 49.6012 164.714 48.9837 165.261 48.4349C165.809 47.886 166.425 47.4744 167.178 47.2C167.931 46.9256 168.684 46.7884 169.574 46.7884C170.464 46.7884 171.217 46.9256 171.902 47.2C172.655 47.4744 173.271 47.886 173.75 48.4349L172.997 49.1895C172.518 48.7093 171.97 48.3663 171.423 48.1605C170.875 47.9546 170.259 47.8174 169.574 47.8174C168.89 47.8174 168.274 47.9546 167.657 48.1605C167.041 48.3663 166.562 48.7093 166.083 49.1895C165.672 49.6012 165.33 50.15 165.056 50.6988C164.782 51.2477 164.714 51.9337 164.714 52.6198C164.714 53.3058 164.851 53.9232 165.056 54.5407C165.261 55.1581 165.672 55.6384 166.083 56.05C166.494 56.4616 167.041 56.8046 167.657 57.0791C168.274 57.2849 168.89 57.4221 169.574 57.4221C170.259 57.4221 170.875 57.2849 171.423 57.0791C171.97 56.8732 172.518 56.5302 172.997 56.05L173.75 56.8046C173.271 57.3535 172.655 57.7651 171.902 58.1081C171.149 58.3825 170.396 58.5198 169.506 58.5198V58.4512Z" fill="black"/>
<path d="M176.078 58.3826V49.7384H177.173V52.0709L177.037 51.6593C177.31 50.9733 177.653 50.493 178.269 50.15C178.816 49.807 179.57 49.6012 180.391 49.6012V50.7674H180.117C179.227 50.7674 178.474 51.0419 177.995 51.5907C177.447 52.1395 177.242 52.9628 177.242 53.9919V58.3826H176.078Z" fill="black"/>
<path d="M186.347 58.4512C185.457 58.4512 184.635 58.2454 183.951 57.9023C183.266 57.4907 182.719 57.0105 182.376 56.3244C181.966 55.6384 181.829 54.8837 181.829 54.0605C181.829 53.2372 182.034 52.414 182.376 51.7965C182.719 51.1105 183.266 50.6302 183.882 50.2186C184.499 49.807 185.252 49.6698 186.073 49.6698C186.895 49.6698 187.579 49.8756 188.264 50.2186C188.88 50.5616 189.359 51.1105 189.77 51.7965C190.112 52.4826 190.318 53.2372 190.318 54.1291C190.318 55.0209 190.318 54.2663 190.318 54.3349V54.5407H182.787V53.6488H189.701L189.222 53.9919C189.222 53.3744 189.085 52.8256 188.811 52.3454C188.538 51.8651 188.195 51.4535 187.716 51.1791C187.237 50.9047 186.689 50.7674 186.142 50.7674C185.594 50.7674 185.046 50.9047 184.567 51.1791C184.088 51.4535 183.745 51.8651 183.472 52.3454C183.198 52.8256 183.061 53.3744 183.061 54.0605V54.2663C183.061 54.9523 183.198 55.5012 183.472 55.9814C183.745 56.4616 184.156 56.8733 184.704 57.1477C185.252 57.4221 185.799 57.5593 186.484 57.5593C187.168 57.5593 187.511 57.5593 187.99 57.2849C188.469 57.0105 188.811 56.8047 189.154 56.393L189.838 57.1477C189.428 57.6279 188.948 57.9709 188.401 58.1767C187.853 58.4512 187.168 58.5198 186.484 58.5198H186.347V58.4512Z" fill="black"/>
<path d="M196.068 58.4512C195.247 58.4512 194.494 58.2453 193.878 57.9023C193.261 57.5593 192.714 57.0105 192.371 56.3244C192.029 55.6384 191.824 54.8837 191.824 53.9919C191.824 53.1 192.029 52.3453 192.371 51.6593C192.714 50.9733 193.261 50.493 193.878 50.15C194.494 49.807 195.247 49.6012 196.068 49.6012C196.89 49.6012 197.506 49.7384 198.122 50.0814C198.738 50.4244 199.217 50.9046 199.56 51.5907C199.902 52.2767 200.107 53.0314 200.107 53.9919C200.107 54.9523 199.902 55.707 199.56 56.393C199.217 57.0791 198.738 57.5593 198.122 57.9023C197.506 58.2453 196.821 58.4512 196.068 58.4512ZM196.137 57.4221C196.753 57.4221 197.3 57.2849 197.78 57.0105C198.259 56.736 198.67 56.3244 198.944 55.8442C199.217 55.364 199.354 54.7465 199.354 54.0605C199.354 53.3744 199.217 52.757 198.944 52.2767C198.67 51.7965 198.259 51.3849 197.78 51.1105C197.3 50.836 196.753 50.6988 196.137 50.6988C195.521 50.6988 194.973 50.836 194.494 51.1105C194.014 51.3849 193.604 51.7965 193.33 52.2767C193.056 52.757 192.919 53.3744 192.919 54.0605C192.919 54.7465 193.056 55.2953 193.33 55.8442C193.604 56.3244 194.014 56.736 194.494 57.0105C194.973 57.2849 195.521 57.4221 196.137 57.4221ZM199.423 58.3826V55.7756L199.56 54.0605L199.423 52.3453V46.2395H200.587V58.4512H199.423V58.3826Z" fill="black"/>
<path d="M207.432 58.4512C206.542 58.4512 205.721 58.2454 205.036 57.9023C204.352 57.4907 203.804 57.0105 203.462 56.3244C203.051 55.6384 202.914 54.8837 202.914 54.0605C202.914 53.2372 203.119 52.414 203.462 51.7965C203.804 51.1105 204.352 50.6302 204.968 50.2186C205.584 49.807 206.337 49.6698 207.159 49.6698C207.98 49.6698 208.665 49.8756 209.349 50.2186C210.034 50.5616 210.445 51.1105 210.855 51.7965C211.198 52.4826 211.403 53.2372 211.403 54.1291C211.403 55.0209 211.403 54.2663 211.403 54.3349V54.5407H203.872V53.6488H210.787L210.308 53.9919C210.308 53.3744 210.171 52.8256 209.897 52.3454C209.623 51.8651 209.281 51.4535 208.802 51.1791C208.322 50.9047 207.775 50.7674 207.227 50.7674C206.679 50.7674 206.132 50.9047 205.652 51.1791C205.173 51.4535 204.831 51.8651 204.557 52.3454C204.283 52.8256 204.146 53.3744 204.146 54.0605V54.2663C204.146 54.9523 204.283 55.5012 204.557 55.9814C204.831 56.4616 205.242 56.8733 205.789 57.1477C206.337 57.4221 206.885 57.5593 207.569 57.5593C208.254 57.5593 208.596 57.5593 209.075 57.2849C209.555 57.0105 209.897 56.8047 210.239 56.393L210.924 57.1477C210.513 57.6279 210.034 57.9709 209.486 58.1767C208.939 58.4512 208.254 58.5198 207.569 58.5198H207.432V58.4512Z" fill="black"/>
<path d="M218.112 49.6698C218.797 49.6698 219.413 49.807 219.961 50.0814C220.508 50.3558 220.919 50.7674 221.193 51.3163C221.467 51.8651 221.672 52.5512 221.672 53.3744V58.3826H220.508V53.443C220.508 52.5512 220.303 51.8651 219.824 51.3849C219.345 50.9047 218.728 50.6988 217.907 50.6988C217.085 50.6988 216.743 50.836 216.332 51.0419C215.922 51.2477 215.511 51.6593 215.305 52.1395C215.032 52.6198 214.963 53.1686 214.963 53.8547V58.3826H213.799V49.7384H214.895V52.1395L214.689 51.7279C214.963 51.1105 215.374 50.6302 215.99 50.2186C216.606 49.8756 217.291 49.6698 218.112 49.6698Z" fill="black"/>
<path d="M223.521 50.6988V49.7384H228.86V50.6988H223.521ZM227.628 58.4512C226.807 58.4512 226.19 58.2454 225.78 57.7651C225.369 57.3535 225.095 56.7361 225.095 55.9128V47.7488H226.259V55.8442C226.259 56.3244 226.396 56.736 226.67 57.0105C226.943 57.2849 227.286 57.4221 227.765 57.4221C228.244 57.4221 228.723 57.2849 229.066 57.0105L229.477 57.8337C229.271 58.0395 228.997 58.1767 228.655 58.314C228.313 58.4512 227.97 58.4512 227.628 58.4512Z" fill="black"/>
<path d="M232.146 47.8174C231.872 47.8174 231.736 47.8174 231.53 47.543C231.325 47.2686 231.256 47.2 231.256 46.9256C231.256 46.6512 231.325 46.514 231.53 46.3081C231.667 46.1709 231.872 46.1023 232.146 46.1023C232.42 46.1023 232.557 46.1023 232.762 46.3081C232.968 46.514 233.036 46.6512 233.036 46.857C233.036 47.0628 232.968 47.2686 232.831 47.4744C232.694 47.6116 232.489 47.7488 232.215 47.7488H232.146V47.8174ZM231.53 58.3826V49.7384H232.694V58.3826H231.53Z" fill="black"/>
<path d="M238.445 58.4512C237.829 58.4512 237.212 58.314 236.733 58.1081C236.254 57.9023 235.912 57.6279 235.638 57.2163C235.364 56.8047 235.227 56.393 235.227 55.9128C235.227 55.4326 235.364 55.0209 235.569 54.6779C235.775 54.3349 236.117 53.9919 236.596 53.786C237.075 53.5802 237.76 53.443 238.582 53.443H241.594V54.3349H238.65C237.829 54.3349 237.212 54.4721 236.939 54.7465C236.596 55.0209 236.459 55.4326 236.459 55.8442C236.459 56.2558 236.665 56.736 237.007 57.0105C237.418 57.2849 237.897 57.4221 238.65 57.4221C239.403 57.4221 239.882 57.2849 240.362 56.9419C240.841 56.5988 241.183 56.1872 241.388 55.6384L241.662 56.4616C241.457 57.0105 241.046 57.4907 240.498 57.8337C239.951 58.1767 239.266 58.314 238.445 58.314V58.4512ZM241.388 58.3826V52.9628C241.388 52.2081 241.183 51.6593 240.772 51.2477C240.362 50.836 239.745 50.6302 238.924 50.6302C238.102 50.6302 237.829 50.6302 237.349 50.9046C236.87 51.1105 236.391 51.3163 236.049 51.6593L235.501 50.7674C235.912 50.4244 236.459 50.0814 237.075 49.8756C237.692 49.6698 238.308 49.6012 238.992 49.6012C240.088 49.6012 240.978 49.8756 241.594 50.4244C242.21 50.9733 242.484 51.7965 242.484 52.9628V58.314H241.388V58.3826Z" fill="black"/>
<path d="M245.702 58.3826V46.1709H246.865V58.3826H245.702Z" fill="black"/>
<path d="M250.22 58.4512C249.946 58.4512 249.741 58.4512 249.604 58.1768C249.467 57.9709 249.33 57.7651 249.33 57.5593C249.33 57.3535 249.399 57.0791 249.604 56.9419C249.741 56.8047 249.946 56.6674 250.22 56.6674C250.494 56.6674 250.699 56.6675 250.836 56.9419C250.973 57.0791 251.11 57.3535 251.11 57.5593C251.11 57.7651 251.042 58.0395 250.836 58.1768C250.699 58.3826 250.494 58.4512 250.22 58.4512Z" fill="black"/>
<path d="M258.024 49.6698C258.709 49.6698 259.325 49.807 259.873 50.0814C260.42 50.3558 260.831 50.7674 261.105 51.3163C261.379 51.8651 261.584 52.5512 261.584 53.3744V58.3826H260.42V53.443C260.42 52.5512 260.215 51.8651 259.736 51.3849C259.257 50.9047 258.641 50.6988 257.819 50.6988C256.997 50.6988 256.655 50.836 256.244 51.0419C255.834 51.2477 255.423 51.6593 255.218 52.1395C254.944 52.6198 254.875 53.1686 254.875 53.8547V58.3826H253.711V49.7384H254.807V52.1395L254.601 51.7279C254.875 51.1105 255.286 50.6302 255.902 50.2186C256.518 49.8756 257.203 49.6698 258.024 49.6698Z" fill="black"/>
<path d="M268.43 58.4512C267.54 58.4512 266.718 58.2454 266.034 57.9023C265.349 57.4907 264.802 57.0105 264.459 56.3244C264.049 55.6384 263.912 54.8837 263.912 54.0605C263.912 53.2372 264.117 52.414 264.459 51.7965C264.802 51.1105 265.349 50.6302 265.965 50.2186C266.582 49.807 267.335 49.6698 268.156 49.6698C268.978 49.6698 269.662 49.8756 270.347 50.2186C271.031 50.5616 271.442 51.1105 271.853 51.7965C272.195 52.4826 272.401 53.2372 272.401 54.1291C272.401 55.0209 272.401 54.2663 272.401 54.3349V54.5407H264.87V53.6488H271.784L271.305 53.9919C271.305 53.3744 271.168 52.8256 270.895 52.3454C270.621 51.8651 270.278 51.4535 269.799 51.1791C269.32 50.9047 268.772 50.7674 268.225 50.7674C267.677 50.7674 267.129 50.9047 266.65 51.1791C266.171 51.4535 265.828 51.8651 265.555 52.3454C265.281 52.8256 265.144 53.3744 265.144 54.0605V54.2663C265.144 54.9523 265.281 55.5012 265.555 55.9814C265.828 56.4616 266.239 56.8733 266.787 57.1477C267.335 57.4221 267.882 57.5593 268.567 57.5593C269.251 57.5593 269.594 57.5593 270.073 57.2849C270.552 57.0105 270.895 56.8047 271.237 56.393L271.921 57.1477C271.511 57.6279 271.031 57.9709 270.484 58.1767C269.936 58.4512 269.251 58.5198 268.567 58.5198H268.43V58.4512Z" fill="black"/>
<path d="M273.359 50.6988V49.7384H278.699V50.6988H273.359ZM277.399 58.4512C276.577 58.4512 275.961 58.2454 275.55 57.7651C275.139 57.3535 274.865 56.7361 274.865 55.9128V47.7488H276.029V55.8442C276.029 56.3244 276.166 56.736 276.44 57.0105C276.714 57.2849 277.056 57.4221 277.535 57.4221C278.015 57.4221 278.494 57.2849 278.836 57.0105L279.247 57.8337C279.042 58.0395 278.768 58.1767 278.425 58.314C278.083 58.4512 277.741 58.4512 277.399 58.4512Z" fill="black"/>
</g>
<defs>
<clipPath id="clip0_21_2024">
<rect width="280" height="59" fill="white"/>
</clipPath>
</defs>
</svg>
