<?xml version="1.0" encoding="UTF-8"?>
<svg id="Layer_2" data-name="Layer 2" xmlns="http://www.w3.org/2000/svg" viewBox="0 0 621.99 571.92">
  <defs>
    <style>
      .cls-1, .cls-2 {
        fill: #fff;
      }

      .cls-2 {
        font-family: Helvetica-Bold, Helvetica;
        font-size: 26px;
        font-weight: 700;
      }
    </style>
  </defs>
  <g id="Full_Logo_BLACK" data-name="Full Logo BLACK">
    <g>
      <g>
        <text class="cls-2" transform="translate(584.45 22.36)"><tspan x="0" y="0">TM</tspan></text>
        <g>
          <polygon class="cls-1" points="556.36 558.64 13.28 558.64 13.28 15.55 556.36 15.55 556.36 150.29 569.65 150.29 569.65 2.27 0 2.27 0 571.92 569.65 571.92 569.65 371.38 556.36 371.44 556.36 558.64"/>
          <path class="cls-1" d="M115.86,175.22c-4.16-5-10.89-7.51-20.16-7.51h-26.48v106.81h14.88v-49.73h11.66c8.59,0,15.13-2.43,19.62-7.28,4.49-4.86,6.73-11.62,6.73-20.29,0-9.66-2.08-17-6.25-22ZM104.33,210.62c-2.45,2.32-6.93,3.48-13.46,3.48h-6.76v-35.69h6.96c2.58,0,4.73.11,6.47.32,1.74.22,3.26.62,4.57,1.22,1.31.6,2.33,1.32,3.06,2.16.73.84,1.32,2.03,1.77,3.58.45,1.55.74,3.19.87,4.93.13,1.74.19,3.96.19,6.67,0,6.57-1.22,11.02-3.68,13.33Z"/>
          <path class="cls-1" d="M140.92,247.6h21.71l4.89,26.93h14.17l-22.81-106.81h-14.36l-22.81,106.81h14.11l5.09-26.93ZM151.74,188.72l8.95,48.25h-17.85l8.89-48.25Z"/>
          <path class="cls-1" d="M246.12,205.92v-8.5c0-10.09-2.08-17.74-6.25-22.93-4.16-5.2-11.06-7.8-20.68-7.8-4.43,0-8.3.56-11.63,1.67-3.33,1.12-6.07,2.66-8.21,4.64-2.14,1.98-3.89,4.49-5.22,7.54-1.33,3.05-2.27,6.33-2.8,9.86-.54,3.52-.8,7.54-.8,12.05v37.75c0,4.21.26,8.01.77,11.41.51,3.39,1.45,6.62,2.8,9.69,1.35,3.07,3.09,5.64,5.22,7.7,2.13,2.06,4.86,3.69,8.21,4.89,3.35,1.2,7.23,1.8,11.66,1.8,4.12,0,7.75-.53,10.89-1.58,3.13-1.05,5.71-2.5,7.73-4.35,2.01-1.85,3.65-4.18,4.89-6.99,1.25-2.81,2.13-5.83,2.64-9.05.51-3.22.77-6.87.77-10.95v-7.92h-14.11v7.86c0,2.49-.03,4.51-.1,6.06-.06,1.55-.22,3.23-.48,5.06-.26,1.82-.67,3.27-1.22,4.35-.56,1.08-1.3,2.11-2.22,3.1-.92.99-2.1,1.69-3.54,2.12-1.44.43-3.15.64-5.12.64-5.15,0-8.74-1.57-10.76-4.7-2.02-3.13-3.03-8.72-3.03-16.75v-42.26c0-2.49.05-4.58.16-6.28.11-1.7.31-3.46.61-5.28.3-1.82.76-3.32,1.38-4.48.62-1.16,1.43-2.22,2.42-3.19.99-.97,2.25-1.68,3.8-2.13,1.54-.45,3.35-.67,5.41-.67,1.37,0,2.62.11,3.74.32,1.12.22,2.08.48,2.9.8.82.32,1.55.82,2.19,1.48.64.67,1.18,1.29,1.61,1.87.43.58.78,1.39,1.06,2.42.28,1.03.51,1.93.67,2.71.17.77.29,1.85.35,3.22.06,1.37.11,2.52.13,3.45.02.93.03,2.2.03,3.83v7.54h14.11Z"/>
          <polygon class="cls-1" points="292.5 214.81 313.63 167.72 299.78 167.72 275.3 218.03 275.3 167.72 260.42 167.72 260.42 274.52 275.3 274.52 275.3 232.46 281.1 221.57 302.55 274.52 313.22 274.52 314.52 268.39 292.5 214.81"/>
          <path class="cls-1" d="M354.12,247.6l4.89,26.93h14.17l-22.81-106.81h-14.36l-21.5,100.67-1.31,6.13h14.11l5.09-26.93h21.71ZM343.24,188.72l8.95,48.25h-17.85l8.89-48.25Z"/>
          <path class="cls-1" d="M427.95,262.22l1.42,12.3h9.47v-52.95h-27.06v10.57h13.53v7.47c0,8.55-1.03,14.75-3.09,18.62s-5.88,5.8-11.47,5.8-9.36-1.78-11.34-5.34c-1.98-3.57-2.96-9.45-2.96-17.65v-39.55c0-2.19.02-4.02.06-5.48.04-1.46.17-3.08.38-4.86.22-1.78.51-3.24.9-4.38.38-1.14.91-2.3,1.58-3.48.67-1.18,1.49-2.1,2.48-2.77.99-.67,2.19-1.2,3.61-1.61,1.42-.41,3.05-.61,4.89-.61,2.41,0,4.42.28,6.06.83,1.63.56,2.95,1.32,3.96,2.29,1.01.97,1.78,2.33,2.32,4.09.54,1.76.89,3.62,1.06,5.57.17,1.95.26,4.44.26,7.44v3.35h13.98v-3.93c0-10.78-2.17-18.68-6.51-23.71-4.34-5.02-11.44-7.54-21.32-7.54-4.47,0-8.35.54-11.66,1.64-3.31,1.09-6.04,2.63-8.18,4.6-2.14,1.98-3.87,4.53-5.18,7.67-1.31,3.13-2.24,6.55-2.77,10.24-.54,3.7-.8,7.99-.8,12.88v35.75c0,11.98,2.15,21.03,6.44,27.16,4.29,6.12,11.29,9.18,21,9.18s15.72-4.53,18.94-13.59Z"/>
          <rect class="cls-1" x="454.88" y="167.72" width="14.62" height="106.81"/>
          <polygon class="cls-1" points="539.72 274.52 539.72 167.72 527.28 167.72 527.28 238.64 496.94 167.72 486.83 167.72 486.83 274.52 499.39 274.52 499.39 201.54 530.18 274.52 539.72 274.52"/>
          <path class="cls-1" d="M558.04,180.6c-1.31,3.13-2.24,6.55-2.77,10.24-.54,3.7-.8,7.99-.8,12.88v35.75c0,11.98,2.15,21.03,6.44,27.16,4.29,6.12,11.29,9.18,21,9.18s15.72-4.53,18.94-13.59l1.42,12.3h9.47v-52.95h-27.06v10.57h13.53v7.47c0,8.55-1.03,14.75-3.09,18.62-2.06,3.87-5.88,5.8-11.47,5.8s-9.36-1.78-11.34-5.34c-1.98-3.57-2.96-9.45-2.96-17.65v-39.55c0-2.19.02-4.02.06-5.48.04-1.46.17-3.08.38-4.86.22-1.78.51-3.24.9-4.38.38-1.14.91-2.3,1.58-3.48.67-1.18,1.49-2.1,2.48-2.77.99-.67,2.19-1.2,3.61-1.61,1.42-.41,3.05-.61,4.89-.61,2.41,0,4.42.28,6.06.83,1.63.56,2.95,1.32,3.96,2.29,1.01.97,1.78,2.33,2.32,4.09.54,1.76.89,3.62,1.06,5.57.17,1.95.26,4.44.26,7.44v3.35h13.98v-3.93c0-10.78-2.17-18.68-6.51-23.71-4.34-5.02-11.44-7.54-21.32-7.54-4.47,0-8.35.54-11.66,1.64-3.31,1.09-6.04,2.63-8.18,4.6-2.14,1.98-3.87,4.53-5.18,7.67Z"/>
          <path class="cls-1" d="M94.35,401.2c-9.15,0-14.19-7.64-15.14-22.93l-13.27,3.61c.56,9.62,3.19,17.2,7.89,22.74,4.7,5.54,11.54,8.31,20.52,8.31,7.6,0,13.76-2.29,18.49-6.86s7.09-10.77,7.09-18.58c0-6.1-1.38-11.55-4.15-16.36-2.77-4.81-6.49-9.32-11.18-13.53l-18.04-15.91c-2.53-2.32-4.34-4.53-5.41-6.64-1.07-2.1-1.61-4.72-1.61-7.86,0-7.25,3.93-11.16,11.79-11.72,2.14-.13,4.03.14,5.67.8,1.63.67,2.94,1.57,3.93,2.71.99,1.14,1.82,2.62,2.51,4.44s1.18,3.64,1.48,5.44c.3,1.8.54,3.87.71,6.18l12.56-3.48c-.86-9.49-3.42-16.5-7.67-21.03-4.25-4.53-10.65-6.73-19.2-6.6-7.77.09-13.9,2.29-18.39,6.6-4.49,4.31-6.73,10.34-6.73,18.07,0,5.24.83,9.68,2.48,13.3,1.66,3.63,4.28,7.08,7.89,10.34l17.91,15.91c2.02,1.89,3.58,3.4,4.67,4.54,1.09,1.14,2.25,2.57,3.48,4.28,1.22,1.72,2.1,3.52,2.64,5.41.54,1.89.81,3.97.81,6.25,0,4.12-1,7.25-3,9.37-2,2.13-4.91,3.19-8.73,3.19Z"/>
          <path class="cls-1" d="M185.24,343.16v-8.5c0-10.09-2.08-17.74-6.25-22.93-4.16-5.2-11.06-7.8-20.68-7.8-4.43,0-8.3.56-11.63,1.67-3.33,1.12-6.07,2.66-8.21,4.64-2.14,1.98-3.89,4.49-5.22,7.54-1.33,3.05-2.27,6.33-2.8,9.86-.54,3.52-.8,7.54-.8,12.05v37.75c0,4.21.26,8.01.77,11.41.51,3.39,1.45,6.62,2.8,9.69,1.35,3.07,3.09,5.64,5.22,7.7,2.13,2.06,4.86,3.69,8.21,4.89,3.35,1.2,7.23,1.8,11.66,1.8,4.12,0,7.75-.53,10.89-1.58,3.13-1.05,5.71-2.5,7.73-4.35,2.01-1.85,3.65-4.18,4.89-6.99,1.25-2.81,2.13-5.83,2.64-9.05.51-3.22.77-6.87.77-10.95v-7.92h-14.11v7.86c0,2.49-.03,4.51-.1,6.06-.06,1.55-.22,3.23-.48,5.06-.26,1.82-.67,3.27-1.22,4.35-.56,1.08-1.3,2.11-2.22,3.1-.92.99-2.1,1.69-3.54,2.12-1.44.43-3.15.64-5.12.64-5.15,0-8.74-1.57-10.76-4.7-2.02-3.13-3.03-8.72-3.03-16.75v-42.26c0-2.49.05-4.58.16-6.28.11-1.7.31-3.46.61-5.28.3-1.82.76-3.32,1.38-4.48.62-1.16,1.43-2.22,2.42-3.19.99-.97,2.25-1.68,3.8-2.13,1.54-.45,3.35-.67,5.41-.67,1.37,0,2.62.11,3.74.32,1.12.22,2.08.48,2.9.8.82.32,1.55.82,2.19,1.48.64.67,1.18,1.29,1.61,1.87.43.58.78,1.39,1.06,2.42.28,1.03.51,1.93.67,2.71.17.77.29,1.85.35,3.22s.11,2.52.13,3.45c.02.93.03,2.2.03,3.83v7.54h14.11Z"/>
          <polygon class="cls-1" points="256.75 411.77 256.75 304.96 241.86 304.96 241.86 351.09 214.42 351.09 214.42 304.96 199.54 304.96 199.54 411.77 214.42 411.77 214.42 361.72 241.86 361.72 241.86 411.77 256.75 411.77"/>
          <path class="cls-1" d="M300.68,303.93c-10.39,0-17.86,2.87-22.39,8.6-4.53,5.73-6.8,14.16-6.8,25.28v40.46c0,5.5.51,10.31,1.55,14.43,1.03,4.12,2.66,7.73,4.89,10.82,2.23,3.09,5.25,5.43,9.05,7.02,3.8,1.59,8.37,2.38,13.69,2.38,10.31,0,17.75-2.98,22.32-8.95,4.57-5.97,6.86-14.51,6.86-25.64v-40.52c0-11.04-2.27-19.44-6.83-25.22s-12.01-8.66-22.35-8.66ZM314.85,381.49c0,3.26-.19,6-.55,8.21-.36,2.21-1.04,4.24-2.03,6.09-.99,1.85-2.44,3.22-4.35,4.12-1.91.9-4.33,1.35-7.25,1.35s-5.34-.45-7.25-1.35c-1.91-.9-3.36-2.27-4.35-4.12-.99-1.85-1.66-3.87-2.03-6.09-.36-2.21-.54-4.95-.54-8.21v-46.77c0-3.22.18-5.91.54-8.05.37-2.14,1.04-4.12,2.03-5.92.99-1.81,2.43-3.13,4.35-3.96,1.91-.84,4.33-1.25,7.25-1.25s5.34.42,7.25,1.25c1.91.84,3.36,2.16,4.35,3.96.99,1.8,1.66,3.78,2.03,5.92.36,2.15.55,4.83.55,8.05v46.77Z"/>
          <path class="cls-1" d="M349.06,403.53c2.23,3.09,5.25,5.43,9.05,7.02,3.8,1.59,8.37,2.38,13.69,2.38,10.31,0,17.75-2.98,22.32-8.95,4.57-5.97,6.86-14.51,6.86-25.64v-40.52c0-11.04-2.27-19.44-6.83-25.22-4.55-5.78-12.01-8.66-22.35-8.66s-17.86,2.87-22.39,8.6c-4.53,5.73-6.79,14.16-6.79,25.28v40.46c0,5.5.51,10.31,1.55,14.43,1.03,4.12,2.66,7.73,4.89,10.82ZM357.63,334.73c0-3.22.18-5.91.54-8.05.37-2.14,1.04-4.12,2.03-5.92.99-1.81,2.43-3.13,4.35-3.96,1.91-.84,4.33-1.25,7.25-1.25s5.34.42,7.25,1.25c1.91.84,3.36,2.16,4.35,3.96.99,1.8,1.66,3.78,2.03,5.92.36,2.15.55,4.83.55,8.05v46.77c0,3.26-.19,6-.55,8.21-.36,2.21-1.04,4.24-2.03,6.09-.99,1.85-2.44,3.22-4.35,4.12-1.91.9-4.33,1.35-7.25,1.35s-5.34-.45-7.25-1.35c-1.91-.9-3.36-2.27-4.35-4.12-.99-1.85-1.66-3.87-2.03-6.09-.36-2.21-.54-4.95-.54-8.21v-46.77Z"/>
          <polygon class="cls-1" points="457.86 401.08 430.61 401.08 430.61 304.96 415.73 304.96 415.73 411.77 457.86 411.77 457.86 401.08"/>
          <rect class="cls-1" x="465.74" y="341.51" width="14.17" height="15.66"/>
          <path class="cls-1" d="M516.89,324.44v-3.07c0-2.77-.21-5.1-.63-7-.42-1.9-1.14-3.56-2.16-4.97-1.02-1.41-2.46-2.45-4.3-3.11-1.85-.66-4.14-.99-6.87-.99-3.03,0-5.53.45-7.52,1.34-1.99.89-3.51,2.27-4.58,4.13-1.07,1.86-1.8,3.96-2.21,6.29-.4,2.33-.61,5.22-.61,8.65v11.85c0,2.65.12,4.94.35,6.87s.66,3.78,1.3,5.56c.64,1.77,1.5,3.21,2.59,4.32,1.09,1.11,2.53,1.99,4.3,2.64,1.77.65,3.9.97,6.38.97,2.71,0,4.98-.36,6.81-1.08,1.83-.72,3.26-1.82,4.3-3.31,1.04-1.48,1.77-3.19,2.2-5.12.43-1.93.65-4.27.65-7v-3.55h-8.56v4.15c0,1.18-.03,2.17-.09,2.96-.06.79-.19,1.59-.39,2.4-.2.81-.49,1.45-.86,1.92-.38.48-.89.86-1.53,1.17-.65.3-1.44.45-2.36.45-2.16,0-3.64-.76-4.43-2.27-.79-1.51-1.19-4.43-1.19-8.76v-16.13c0-4.47.35-7.5,1.06-9.1.7-1.6,2.21-2.4,4.52-2.4,2.02,0,3.4.67,4.15,2.01.75,1.34,1.12,3.7,1.12,7.07v3.11h8.56Z"/>
          <path class="cls-1" d="M527.57,352.75c1.12,1.7,2.66,2.98,4.6,3.85,1.95.86,4.31,1.3,7.11,1.3,5.39,0,9.22-1.61,11.5-4.84,2.28-3.23,3.42-7.91,3.42-14.05v-14.83c0-6.14-1.14-10.82-3.42-14.05-2.28-3.23-6.11-4.84-11.5-4.84-2.8,0-5.17.43-7.11,1.3-1.95.86-3.48,2.15-4.6,3.85-1.12,1.7-1.94,3.67-2.44,5.9-.51,2.24-.76,4.85-.76,7.85v14.83c0,3,.25,5.61.76,7.85.51,2.24,1.32,4.2,2.44,5.9ZM533.84,323.57c0-1.09,0-1.92.02-2.46s.05-1.3.11-2.25c.06-.95.15-1.68.28-2.18.13-.51.33-1.09.61-1.75.27-.66.6-1.15.97-1.47s.86-.6,1.45-.84c.59-.25,1.26-.37,2.01-.37s1.41.12,1.99.37c.58.25,1.06.53,1.45.84.39.32.71.81.97,1.47.26.66.45,1.25.58,1.75s.22,1.23.28,2.18.1,1.7.11,2.25.02,1.37.02,2.46v16.04c0,1.27,0,2.23-.02,2.88-.01.65-.07,1.5-.17,2.55-.1,1.05-.27,1.86-.5,2.42-.23.56-.53,1.15-.91,1.75-.38.61-.89,1.04-1.53,1.3-.65.26-1.41.39-2.27.39-.75,0-1.42-.12-2.01-.35-.59-.23-1.07-.51-1.45-.84-.38-.33-.7-.82-.97-1.47-.27-.65-.48-1.22-.61-1.73-.13-.51-.22-1.23-.28-2.18-.06-.95-.1-1.7-.11-2.25-.01-.55-.02-1.37-.02-2.46v-16.04Z"/>
          <path class="cls-1" d="M611.25,308.01c-1.69-1.96-3.87-2.94-6.55-2.94-4.93,0-9.18,2.16-12.75,6.49-1.21-4.32-3.98-6.49-8.3-6.49-4.58,0-8.6,1.92-12.06,5.75v-4.84h-8.73v51.19h8.73v-41.68c2.71-2.8,5.37-4.19,8-4.19,1.41-.03,2.5.42,3.26,1.36.77.94,1.15,2.57,1.15,4.91v39.6h8.69v-40.17c0-.69-.01-1.21-.04-1.56,2.68-2.77,5.35-4.15,8-4.15,1.41-.03,2.5.42,3.26,1.36.77.94,1.15,2.57,1.15,4.91v39.6h8.73v-40.17c0-4.03-.84-7.03-2.53-8.99Z"/>
        </g>
      </g>
      <g>
        <polygon class="cls-1" points="556.36 558.64 13.28 558.64 13.28 15.55 556.36 15.55 556.36 150.29 569.65 150.29 569.65 2.27 0 2.27 0 571.92 569.65 571.92 569.65 371.38 556.36 371.44 556.36 558.64"/>
        <path class="cls-1" d="M115.86,175.22c-4.16-5-10.89-7.51-20.16-7.51h-26.48v106.81h14.88v-49.73h11.66c8.59,0,15.13-2.43,19.62-7.28,4.49-4.86,6.73-11.62,6.73-20.29,0-9.66-2.08-17-6.25-22ZM104.33,210.62c-2.45,2.32-6.93,3.48-13.46,3.48h-6.76v-35.69h6.96c2.58,0,4.73.11,6.47.32,1.74.22,3.26.62,4.57,1.22,1.31.6,2.33,1.32,3.06,2.16.73.84,1.32,2.03,1.77,3.58.45,1.55.74,3.19.87,4.93.13,1.74.19,3.96.19,6.67,0,6.57-1.22,11.02-3.68,13.33Z"/>
        <path class="cls-1" d="M140.92,247.6h21.71l4.89,26.93h14.17l-22.81-106.81h-14.36l-22.81,106.81h14.11l5.09-26.93ZM151.74,188.72l8.95,48.25h-17.85l8.89-48.25Z"/>
        <path class="cls-1" d="M246.12,205.92v-8.5c0-10.09-2.08-17.74-6.25-22.93-4.16-5.2-11.06-7.8-20.68-7.8-4.43,0-8.3.56-11.63,1.67-3.33,1.12-6.07,2.66-8.21,4.64-2.14,1.98-3.89,4.49-5.22,7.54-1.33,3.05-2.27,6.33-2.8,9.86-.54,3.52-.8,7.54-.8,12.05v37.75c0,4.21.26,8.01.77,11.41.51,3.39,1.45,6.62,2.8,9.69,1.35,3.07,3.09,5.64,5.22,7.7,2.13,2.06,4.86,3.69,8.21,4.89,3.35,1.2,7.23,1.8,11.66,1.8,4.12,0,7.75-.53,10.89-1.58,3.13-1.05,5.71-2.5,7.73-4.35,2.01-1.85,3.65-4.18,4.89-6.99,1.25-2.81,2.13-5.83,2.64-9.05.51-3.22.77-6.87.77-10.95v-7.92h-14.11v7.86c0,2.49-.03,4.51-.1,6.06-.06,1.55-.22,3.23-.48,5.06-.26,1.82-.67,3.27-1.22,4.35-.56,1.08-1.3,2.11-2.22,3.1-.92.99-2.1,1.69-3.54,2.12-1.44.43-3.15.64-5.12.64-5.15,0-8.74-1.57-10.76-4.7-2.02-3.13-3.03-8.72-3.03-16.75v-42.26c0-2.49.05-4.58.16-6.28.11-1.7.31-3.46.61-5.28.3-1.82.76-3.32,1.38-4.48.62-1.16,1.43-2.22,2.42-3.19.99-.97,2.25-1.68,3.8-2.13,1.54-.45,3.35-.67,5.41-.67,1.37,0,2.62.11,3.74.32,1.12.22,2.08.48,2.9.8.82.32,1.55.82,2.19,1.48.64.67,1.18,1.29,1.61,1.87.43.58.78,1.39,1.06,2.42.28,1.03.51,1.93.67,2.71.17.77.29,1.85.35,3.22.06,1.37.11,2.52.13,3.45.02.93.03,2.2.03,3.83v7.54h14.11Z"/>
        <polygon class="cls-1" points="292.5 214.81 313.63 167.72 299.78 167.72 275.3 218.03 275.3 167.72 260.42 167.72 260.42 274.52 275.3 274.52 275.3 232.46 281.1 221.57 302.55 274.52 313.22 274.52 314.52 268.39 292.5 214.81"/>
        <path class="cls-1" d="M354.12,247.6l4.89,26.93h14.17l-22.81-106.81h-14.36l-21.5,100.67-1.31,6.13h14.11l5.09-26.93h21.71ZM343.24,188.72l8.95,48.25h-17.85l8.89-48.25Z"/>
        <path class="cls-1" d="M427.95,262.22l1.42,12.3h9.47v-52.95h-27.06v10.57h13.53v7.47c0,8.55-1.03,14.75-3.09,18.62s-5.88,5.8-11.47,5.8-9.36-1.78-11.34-5.34c-1.98-3.57-2.96-9.45-2.96-17.65v-39.55c0-2.19.02-4.02.06-5.48.04-1.46.17-3.08.38-4.86.22-1.78.51-3.24.9-4.38.38-1.14.91-2.3,1.58-3.48.67-1.18,1.49-2.1,2.48-2.77.99-.67,2.19-1.2,3.61-1.61,1.42-.41,3.05-.61,4.89-.61,2.41,0,4.42.28,6.06.83,1.63.56,2.95,1.32,3.96,2.29,1.01.97,1.78,2.33,2.32,4.09.54,1.76.89,3.62,1.06,5.57.17,1.95.26,4.44.26,7.44v3.35h13.98v-3.93c0-10.78-2.17-18.68-6.51-23.71-4.34-5.02-11.44-7.54-21.32-7.54-4.47,0-8.35.54-11.66,1.64-3.31,1.09-6.04,2.63-8.18,4.6-2.14,1.98-3.87,4.53-5.18,7.67-1.31,3.13-2.24,6.55-2.77,10.24-.54,3.7-.8,7.99-.8,12.88v35.75c0,11.98,2.15,21.03,6.44,27.16,4.29,6.12,11.29,9.18,21,9.18s15.72-4.53,18.94-13.59Z"/>
        <rect class="cls-1" x="454.88" y="167.72" width="14.62" height="106.81"/>
        <polygon class="cls-1" points="539.72 274.52 539.72 167.72 527.28 167.72 527.28 238.64 496.94 167.72 486.83 167.72 486.83 274.52 499.39 274.52 499.39 201.54 530.18 274.52 539.72 274.52"/>
        <path class="cls-1" d="M558.04,180.6c-1.31,3.13-2.24,6.55-2.77,10.24-.54,3.7-.8,7.99-.8,12.88v35.75c0,11.98,2.15,21.03,6.44,27.16,4.29,6.12,11.29,9.18,21,9.18s15.72-4.53,18.94-13.59l1.42,12.3h9.47v-52.95h-27.06v10.57h13.53v7.47c0,8.55-1.03,14.75-3.09,18.62-2.06,3.87-5.88,5.8-11.47,5.8s-9.36-1.78-11.34-5.34c-1.98-3.57-2.96-9.45-2.96-17.65v-39.55c0-2.19.02-4.02.06-5.48.04-1.46.17-3.08.38-4.86.22-1.78.51-3.24.9-4.38.38-1.14.91-2.3,1.58-3.48.67-1.18,1.49-2.1,2.48-2.77.99-.67,2.19-1.2,3.61-1.61,1.42-.41,3.05-.61,4.89-.61,2.41,0,4.42.28,6.06.83,1.63.56,2.95,1.32,3.96,2.29,1.01.97,1.78,2.33,2.32,4.09.54,1.76.89,3.62,1.06,5.57.17,1.95.26,4.44.26,7.44v3.35h13.98v-3.93c0-10.78-2.17-18.68-6.51-23.71-4.34-5.02-11.44-7.54-21.32-7.54-4.47,0-8.35.54-11.66,1.64-3.31,1.09-6.04,2.63-8.18,4.6-2.14,1.98-3.87,4.53-5.18,7.67Z"/>
        <path class="cls-1" d="M94.35,401.2c-9.15,0-14.19-7.64-15.14-22.93l-13.27,3.61c.56,9.62,3.19,17.2,7.89,22.74,4.7,5.54,11.54,8.31,20.52,8.31,7.6,0,13.76-2.29,18.49-6.86s7.09-10.77,7.09-18.58c0-6.1-1.38-11.55-4.15-16.36-2.77-4.81-6.49-9.32-11.18-13.53l-18.04-15.91c-2.53-2.32-4.34-4.53-5.41-6.64-1.07-2.1-1.61-4.72-1.61-7.86,0-7.25,3.93-11.16,11.79-11.72,2.14-.13,4.03.14,5.67.8,1.63.67,2.94,1.57,3.93,2.71.99,1.14,1.82,2.62,2.51,4.44s1.18,3.64,1.48,5.44c.3,1.8.54,3.87.71,6.18l12.56-3.48c-.86-9.49-3.42-16.5-7.67-21.03-4.25-4.53-10.65-6.73-19.2-6.6-7.77.09-13.9,2.29-18.39,6.6-4.49,4.31-6.73,10.34-6.73,18.07,0,5.24.83,9.68,2.48,13.3,1.66,3.63,4.28,7.08,7.89,10.34l17.91,15.91c2.02,1.89,3.58,3.4,4.67,4.54,1.09,1.14,2.25,2.57,3.48,4.28,1.22,1.72,2.1,3.52,2.64,5.41.54,1.89.81,3.97.81,6.25,0,4.12-1,7.25-3,9.37-2,2.13-4.91,3.19-8.73,3.19Z"/>
        <path class="cls-1" d="M185.24,343.16v-8.5c0-10.09-2.08-17.74-6.25-22.93-4.16-5.2-11.06-7.8-20.68-7.8-4.43,0-8.3.56-11.63,1.67-3.33,1.12-6.07,2.66-8.21,4.64-2.14,1.98-3.89,4.49-5.22,7.54-1.33,3.05-2.27,6.33-2.8,9.86-.54,3.52-.8,7.54-.8,12.05v37.75c0,4.21.26,8.01.77,11.41.51,3.39,1.45,6.62,2.8,9.69,1.35,3.07,3.09,5.64,5.22,7.7,2.13,2.06,4.86,3.69,8.21,4.89,3.35,1.2,7.23,1.8,11.66,1.8,4.12,0,7.75-.53,10.89-1.58,3.13-1.05,5.71-2.5,7.73-4.35,2.01-1.85,3.65-4.18,4.89-6.99,1.25-2.81,2.13-5.83,2.64-9.05.51-3.22.77-6.87.77-10.95v-7.92h-14.11v7.86c0,2.49-.03,4.51-.1,6.06-.06,1.55-.22,3.23-.48,5.06-.26,1.82-.67,3.27-1.22,4.35-.56,1.08-1.3,2.11-2.22,3.1-.92.99-2.1,1.69-3.54,2.12-1.44.43-3.15.64-5.12.64-5.15,0-8.74-1.57-10.76-4.7-2.02-3.13-3.03-8.72-3.03-16.75v-42.26c0-2.49.05-4.58.16-6.28.11-1.7.31-3.46.61-5.28.3-1.82.76-3.32,1.38-4.48.62-1.16,1.43-2.22,2.42-3.19.99-.97,2.25-1.68,3.8-2.13,1.54-.45,3.35-.67,5.41-.67,1.37,0,2.62.11,3.74.32,1.12.22,2.08.48,2.9.8.82.32,1.55.82,2.19,1.48.64.67,1.18,1.29,1.61,1.87.43.58.78,1.39,1.06,2.42.28,1.03.51,1.93.67,2.71.17.77.29,1.85.35,3.22s.11,2.52.13,3.45c.02.93.03,2.2.03,3.83v7.54h14.11Z"/>
        <polygon class="cls-1" points="256.75 411.77 256.75 304.96 241.86 304.96 241.86 351.09 214.42 351.09 214.42 304.96 199.54 304.96 199.54 411.77 214.42 411.77 214.42 361.72 241.86 361.72 241.86 411.77 256.75 411.77"/>
        <path class="cls-1" d="M300.68,303.93c-10.39,0-17.86,2.87-22.39,8.6-4.53,5.73-6.8,14.16-6.8,25.28v40.46c0,5.5.51,10.31,1.55,14.43,1.03,4.12,2.66,7.73,4.89,10.82,2.23,3.09,5.25,5.43,9.05,7.02,3.8,1.59,8.37,2.38,13.69,2.38,10.31,0,17.75-2.98,22.32-8.95,4.57-5.97,6.86-14.51,6.86-25.64v-40.52c0-11.04-2.27-19.44-6.83-25.22s-12.01-8.66-22.35-8.66ZM314.85,381.49c0,3.26-.19,6-.55,8.21-.36,2.21-1.04,4.24-2.03,6.09-.99,1.85-2.44,3.22-4.35,4.12-1.91.9-4.33,1.35-7.25,1.35s-5.34-.45-7.25-1.35c-1.91-.9-3.36-2.27-4.35-4.12-.99-1.85-1.66-3.87-2.03-6.09-.36-2.21-.54-4.95-.54-8.21v-46.77c0-3.22.18-5.91.54-8.05.37-2.14,1.04-4.12,2.03-5.92.99-1.81,2.43-3.13,4.35-3.96,1.91-.84,4.33-1.25,7.25-1.25s5.34.42,7.25,1.25c1.91.84,3.36,2.16,4.35,3.96.99,1.8,1.66,3.78,2.03,5.92.36,2.15.55,4.83.55,8.05v46.77Z"/>
        <path class="cls-1" d="M349.06,403.53c2.23,3.09,5.25,5.43,9.05,7.02,3.8,1.59,8.37,2.38,13.69,2.38,10.31,0,17.75-2.98,22.32-8.95,4.57-5.97,6.86-14.51,6.86-25.64v-40.52c0-11.04-2.27-19.44-6.83-25.22-4.55-5.78-12.01-8.66-22.35-8.66s-17.86,2.87-22.39,8.6c-4.53,5.73-6.79,14.16-6.79,25.28v40.46c0,5.5.51,10.31,1.55,14.43,1.03,4.12,2.66,7.73,4.89,10.82ZM357.63,334.73c0-3.22.18-5.91.54-8.05.37-2.14,1.04-4.12,2.03-5.92.99-1.81,2.43-3.13,4.35-3.96,1.91-.84,4.33-1.25,7.25-1.25s5.34.42,7.25,1.25c1.91.84,3.36,2.16,4.35,3.96.99,1.8,1.66,3.78,2.03,5.92.36,2.15.55,4.83.55,8.05v46.77c0,3.26-.19,6-.55,8.21-.36,2.21-1.04,4.24-2.03,6.09-.99,1.85-2.44,3.22-4.35,4.12-1.91.9-4.33,1.35-7.25,1.35s-5.34-.45-7.25-1.35c-1.91-.9-3.36-2.27-4.35-4.12-.99-1.85-1.66-3.87-2.03-6.09-.36-2.21-.54-4.95-.54-8.21v-46.77Z"/>
        <polygon class="cls-1" points="457.86 401.08 430.61 401.08 430.61 304.96 415.73 304.96 415.73 411.77 457.86 411.77 457.86 401.08"/>
        <rect class="cls-1" x="465.74" y="341.51" width="14.17" height="15.66"/>
        <path class="cls-1" d="M516.89,324.44v-3.07c0-2.77-.21-5.1-.63-7-.42-1.9-1.14-3.56-2.16-4.97-1.02-1.41-2.46-2.45-4.3-3.11-1.85-.66-4.14-.99-6.87-.99-3.03,0-5.53.45-7.52,1.34-1.99.89-3.51,2.27-4.58,4.13-1.07,1.86-1.8,3.96-2.21,6.29-.4,2.33-.61,5.22-.61,8.65v11.85c0,2.65.12,4.94.35,6.87s.66,3.78,1.3,5.56c.64,1.77,1.5,3.21,2.59,4.32,1.09,1.11,2.53,1.99,4.3,2.64,1.77.65,3.9.97,6.38.97,2.71,0,4.98-.36,6.81-1.08,1.83-.72,3.26-1.82,4.3-3.31,1.04-1.48,1.77-3.19,2.2-5.12.43-1.93.65-4.27.65-7v-3.55h-8.56v4.15c0,1.18-.03,2.17-.09,2.96-.06.79-.19,1.59-.39,2.4-.2.81-.49,1.45-.86,1.92-.38.48-.89.86-1.53,1.17-.65.3-1.44.45-2.36.45-2.16,0-3.64-.76-4.43-2.27-.79-1.51-1.19-4.43-1.19-8.76v-16.13c0-4.47.35-7.5,1.06-9.1.7-1.6,2.21-2.4,4.52-2.4,2.02,0,3.4.67,4.15,2.01.75,1.34,1.12,3.7,1.12,7.07v3.11h8.56Z"/>
        <path class="cls-1" d="M527.57,352.75c1.12,1.7,2.66,2.98,4.6,3.85,1.95.86,4.31,1.3,7.11,1.3,5.39,0,9.22-1.61,11.5-4.84,2.28-3.23,3.42-7.91,3.42-14.05v-14.83c0-6.14-1.14-10.82-3.42-14.05-2.28-3.23-6.11-4.84-11.5-4.84-2.8,0-5.17.43-7.11,1.3-1.95.86-3.48,2.15-4.6,3.85-1.12,1.7-1.94,3.67-2.44,5.9-.51,2.24-.76,4.85-.76,7.85v14.83c0,3,.25,5.61.76,7.85.51,2.24,1.32,4.2,2.44,5.9ZM533.84,323.57c0-1.09,0-1.92.02-2.46s.05-1.3.11-2.25c.06-.95.15-1.68.28-2.18.13-.51.33-1.09.61-1.75.27-.66.6-1.15.97-1.47s.86-.6,1.45-.84c.59-.25,1.26-.37,2.01-.37s1.41.12,1.99.37c.58.25,1.06.53,1.45.84.39.32.71.81.97,1.47.26.66.45,1.25.58,1.75s.22,1.23.28,2.18.1,1.7.11,2.25.02,1.37.02,2.46v16.04c0,1.27,0,2.23-.02,2.88-.01.65-.07,1.5-.17,2.55-.1,1.05-.27,1.86-.5,2.42-.23.56-.53,1.15-.91,1.75-.38.61-.89,1.04-1.53,1.3-.65.26-1.41.39-2.27.39-.75,0-1.42-.12-2.01-.35-.59-.23-1.07-.51-1.45-.84-.38-.33-.7-.82-.97-1.47-.27-.65-.48-1.22-.61-1.73-.13-.51-.22-1.23-.28-2.18-.06-.95-.1-1.7-.11-2.25-.01-.55-.02-1.37-.02-2.46v-16.04Z"/>
        <path class="cls-1" d="M611.25,308.01c-1.69-1.96-3.87-2.94-6.55-2.94-4.93,0-9.18,2.16-12.75,6.49-1.21-4.32-3.98-6.49-8.3-6.49-4.58,0-8.6,1.92-12.06,5.75v-4.84h-8.73v51.19h8.73v-41.68c2.71-2.8,5.37-4.19,8-4.19,1.41-.03,2.5.42,3.26,1.36.77.94,1.15,2.57,1.15,4.91v39.6h8.69v-40.17c0-.69-.01-1.21-.04-1.56,2.68-2.77,5.35-4.15,8-4.15,1.41-.03,2.5.42,3.26,1.36.77.94,1.15,2.57,1.15,4.91v39.6h8.73v-40.17c0-4.03-.84-7.03-2.53-8.99Z"/>
      </g>
    </g>
  </g>
</svg>